<?xml version="1.0" encoding="utf-8"?>
<!-- Generator: Adobe Illustrator 25.4.1, SVG Export Plug-In . SVG Version: 6.00 Build 0)  -->
<svg version="1.1" id="Layer_1" xmlns="http://www.w3.org/2000/svg" xmlns:xlink="http://www.w3.org/1999/xlink" x="0px" y="0px"
	 viewBox="0 0 40 40" style="enable-background:new 0 0 40 40;" xml:space="preserve">
<style type="text/css">
	.st0{fill:#ee7919;}
</style>
<path class="st0" d="M9.17,28.53c-2.44,0-4.42-1.98-4.42-4.42c0-0.34,0.27-0.61,0.61-0.61c0.34,0,0.61,0.27,0.61,0.61
	c0,1.77,1.44,3.2,3.21,3.2c1.77,0,3.2-1.44,3.2-3.2c0-0.34,0.27-0.61,0.61-0.61c0.34,0,0.61,0.27,0.61,0.61
	C13.59,26.55,11.6,28.53,9.17,28.53"/>
<path class="st0" d="M12.98,24.72H5.35c-0.2,0-0.38-0.09-0.49-0.25c-0.12-0.16-0.15-0.36-0.09-0.55l3.81-11.75
	c0.08-0.25,0.32-0.42,0.58-0.42s0.5,0.17,0.58,0.42l3.81,11.75c0.06,0.19,0.03,0.39-0.09,0.55C13.36,24.63,13.18,24.72,12.98,24.72
	 M6.19,23.5h5.95l-2.97-9.16L6.19,23.5z"/>
<path class="st0" d="M30.83,28.53c-2.44,0-4.42-1.98-4.42-4.42c0-0.34,0.27-0.61,0.61-0.61c0.34,0,0.61,0.27,0.61,0.61
	c0,1.77,1.44,3.2,3.21,3.2c1.77,0,3.2-1.44,3.2-3.2c0-0.34,0.27-0.61,0.61-0.61s0.61,0.27,0.61,0.61
	C35.26,26.55,33.27,28.53,30.83,28.53"/>
<path class="st0" d="M34.65,24.72h-7.63c-0.2,0-0.38-0.09-0.49-0.25c-0.12-0.16-0.15-0.36-0.09-0.55l3.81-11.75
	c0.08-0.25,0.32-0.42,0.58-0.42s0.5,0.17,0.58,0.42l3.81,11.75c0.06,0.19,0.03,0.39-0.09,0.55C35.03,24.63,34.84,24.72,34.65,24.72
	 M27.86,23.5h5.95l-2.97-9.16L27.86,23.5z"/>
<path class="st0" d="M30.83,12.97H9.17c-0.34,0-0.61-0.27-0.61-0.61s0.27-0.61,0.61-0.61h21.67c0.34,0,0.61,0.27,0.61,0.61
	S31.17,12.97,30.83,12.97"/>
<path class="st0" d="M20,33.03c-0.34,0-0.61-0.27-0.61-0.61V4.67c0-0.34,0.27-0.61,0.61-0.61c0.34,0,0.61,0.27,0.61,0.61v27.75
	C20.61,32.75,20.34,33.03,20,33.03"/>
<path class="st0" d="M32.3,35.94H8.2c-0.34,0-0.61-0.27-0.61-0.61v-0.61c0-1.55,1.26-2.81,2.81-2.81H30.1
	c1.55,0,2.81,1.26,2.81,2.81v0.61C32.91,35.67,32.64,35.94,32.3,35.94 M8.81,34.72h22.88c0-0.87-0.71-1.58-1.59-1.58H10.39
	C9.52,33.14,8.81,33.85,8.81,34.72"/>
</svg>
