<?xml version="1.0" encoding="utf-8"?>
<!-- Generator: Adobe Illustrator 25.4.1, SVG Export Plug-In . SVG Version: 6.00 Build 0)  -->
<svg version="1.1" id="Layer_1" xmlns="http://www.w3.org/2000/svg" xmlns:xlink="http://www.w3.org/1999/xlink" x="0px" y="0px"
	 viewBox="0 0 40 40" style="enable-background:new 0 0 40 40;" xml:space="preserve">
<style type="text/css">
	.st0{fill:#ee7919;}
</style>
<path class="st0" d="M20,32.97c-0.14,0-0.29-0.04-0.42-0.11c-4.48-2.54-13.74-10.2-13.74-17.7c0-4.7,3.02-8.12,7.19-8.12
	c2.66,0,5.57,1.49,6.97,4.05c1.4-2.56,4.3-4.05,6.97-4.05c4.16,0,7.19,3.41,7.19,8.12c0,7.5-9.26,15.17-13.74,17.7
	C20.29,32.93,20.14,32.97,20,32.97 M13.03,8.72c-3.19,0-5.5,2.7-5.5,6.43c0,6.47,8.27,13.47,12.47,15.99
	c4.19-2.52,12.47-9.52,12.47-15.99c0-3.73-2.31-6.43-5.5-6.43c-2.81,0-5.95,2.08-6.13,5.44c-0.02,0.45-0.39,0.8-0.84,0.8
	c-0.45,0-0.82-0.35-0.84-0.8C18.98,10.8,15.84,8.72,13.03,8.72"/>
<line class="st0" x1="20" y1="17.19" x2="20" y2="25.43"/>
<path class="st0" d="M20,26.27c-0.47,0-0.84-0.38-0.84-0.84v-8.24c0-0.47,0.38-0.84,0.84-0.84c0.47,0,0.84,0.38,0.84,0.84v8.24
	C20.84,25.89,20.47,26.27,20,26.27"/>
<line class="st0" x1="24.12" y1="20.71" x2="15.88" y2="20.71"/>
<path class="st0" d="M24.12,21.56h-8.24c-0.47,0-0.84-0.38-0.84-0.84s0.38-0.84,0.84-0.84h8.24c0.47,0,0.84,0.38,0.84,0.84
	S24.59,21.56,24.12,21.56"/>
</svg>
